<svg width="30" height="30" viewBox="0 0 30 30" fill="none">
<path d="M15.7362 10.3203C15.6386 10.1699 15.4856 10.0622 15.309 10.0198C15.1324 9.97744 14.9459 10.0036 14.7885 10.0927C14.6311 10.1819 14.5149 10.3273 14.4642 10.4984C14.4136 10.6696 14.4323 10.8533 14.5166 11.0112L16.279 14.0097L12 13.3188L15.7291 20.6356C15.8157 20.7938 15.9617 20.9128 16.1363 20.9674C16.3108 21.0219 16.5002 21.0077 16.6642 20.9277C16.8282 20.8478 16.9541 20.7084 17.0151 20.5391C17.0761 20.3698 17.0674 20.1839 16.9909 20.0207L14.5025 15.129L19 15.8614L15.7362 10.3203Z" fill="currentColor"/>
<path d="M20.6422 5.375H19.1111V5.08625C19.1111 4.79816 18.9909 4.52187 18.7769 4.31816C18.5629 4.11444 18.2726 4 17.97 4H13.03C12.7274 4 12.4371 4.11444 12.2231 4.31816C12.0091 4.52187 11.8889 4.79816 11.8889 5.08625V5.375H10.3578C9.99767 5.375 9.65232 5.51117 9.39768 5.75356C9.14305 5.99596 9 6.32471 9 6.6675V24.7075C9 24.8772 9.03512 25.0453 9.10335 25.2021C9.17159 25.3589 9.2716 25.5014 9.39768 25.6214C9.52377 25.7415 9.67345 25.8367 9.83818 25.9016C10.0029 25.9666 10.1795 26 10.3578 26H20.6422C21.0023 26 21.3477 25.8638 21.6023 25.6214C21.8569 25.379 22 25.0503 22 24.7075V6.6675C22 6.32471 21.8569 5.99596 21.6023 5.75356C21.3477 5.51117 21.0023 5.375 20.6422 5.375ZM20.5556 24.625H10.4444V6.75H13.3333V5.375H17.6667V6.75H20.5556V24.625Z" fill="currentColor"/>
</svg>
