<svg width="21" height="21" viewBox="0 0 21 21" fill="none">
<path d="M10.5 1.3125C8.68289 1.3125 6.90658 1.85134 5.3957 2.86087C3.88483 3.87041 2.70724 5.3053 2.01186 6.9841C1.31648 8.66289 1.13454 10.5102 1.48904 12.2924C1.84354 14.0746 2.71857 15.7116 4.00346 16.9965C5.28836 18.2814 6.92541 19.1565 8.70761 19.511C10.4898 19.8655 12.3371 19.6835 14.0159 18.9881C15.6947 18.2928 17.1296 17.1152 18.1391 15.6043C19.1487 14.0934 19.6875 12.3171 19.6875 10.5C19.6875 8.06332 18.7195 5.72645 16.9965 4.00346C15.2736 2.28047 12.9367 1.3125 10.5 1.3125ZM9.1875 14.1684L5.90625 10.8872L6.94969 9.84375L9.1875 12.0816L14.0503 7.21875L15.0977 8.25956L9.1875 14.1684Z" fill="#333333"/>
</svg>
