<svg width="41" height="24" viewBox="0 0 41 24" fill="none">
<path d="M31.6196 24C29.82 24 28.1442 23.7111 26.592 23.1333C25.0624 22.5333 23.7239 21.7 22.5767 20.6333C21.4519 19.5444 20.5746 18.2667 19.9448 16.8C19.3149 15.3333 19 13.7333 19 12C19 10.2667 19.3149 8.66667 19.9448 7.2C20.5746 5.73333 21.4632 4.46667 22.6104 3.4C23.7577 2.31111 25.0961 1.47778 26.6258 0.900001C28.1554 0.300001 29.8313 0 31.6534 0C33.5879 0 35.3538 0.333333 36.9509 1C38.5481 1.64444 39.8978 2.61111 41 3.9L38.1656 6.53333C37.3108 5.62222 36.3548 4.94445 35.2975 4.5C34.2403 4.03333 33.093 3.8 31.8558 3.8C30.6186 3.8 29.4826 4 28.4479 4.4C27.4356 4.8 26.547 5.36667 25.7822 6.1C25.0399 6.83333 24.455 7.7 24.0276 8.7C23.6227 9.7 23.4202 10.8 23.4202 12C23.4202 13.2 23.6227 14.3 24.0276 15.3C24.455 16.3 25.0399 17.1667 25.7822 17.9C26.547 18.6333 27.4356 19.2 28.4479 19.6C29.4826 20 30.6186 20.2 31.8558 20.2C33.093 20.2 34.2403 19.9778 35.2975 19.5333C36.3548 19.0667 37.3108 18.3667 38.1656 17.4333L41 20.1C39.8978 21.3667 38.5481 22.3333 36.9509 23C35.3538 23.6667 33.5767 24 31.6196 24Z" fill="#64696B"/>
<path d="M3.9589 10.58H15.5695V14.1943H3.9589V10.58ZM4.32485 23H0V0H17V3.58143H4.32485V23Z" fill="#64696B"/>
</svg>
