<svg width="145" height="40" viewBox="0 0 145 40" fill="none">
<path d="M7.392 12.497V19.526H18.546V23.156H7.392V32H3.102V8.9H19.965V12.497H7.392ZM34.5479 32.33C32.2159 32.33 30.1039 31.824 28.2119 30.812C26.3419 29.778 24.8679 28.359 23.7899 26.555C22.7339 24.751 22.2059 22.716 22.2059 20.45C22.2059 18.184 22.7449 16.149 23.8229 14.345C24.9009 12.541 26.3749 11.133 28.2449 10.121C30.1369 9.087 32.2489 8.57 34.5809 8.57C36.4729 8.57 38.1999 8.9 39.7619 9.56C41.3239 10.22 42.6439 11.177 43.7219 12.431L40.9499 15.038C39.2779 13.234 37.2209 12.332 34.7789 12.332C33.1949 12.332 31.7759 12.684 30.5219 13.388C29.2679 14.07 28.2889 15.027 27.5849 16.259C26.8809 17.491 26.5289 18.888 26.5289 20.45C26.5289 22.012 26.8809 23.409 27.5849 24.641C28.2889 25.873 29.2679 26.841 30.5219 27.545C31.7759 28.227 33.1949 28.568 34.7789 28.568C37.2209 28.568 39.2779 27.655 40.9499 25.829L43.7219 28.469C42.6439 29.723 41.3129 30.68 39.7289 31.34C38.1669 32 36.4399 32.33 34.5479 32.33Z" fill="#64696B"/>
<path d="M55.912 12.317V15.086H60.306V16.516H55.912V20H54.222V10.9H60.865V12.317H55.912ZM68.5278 17.894H63.9778L63.0808 20H61.3388L65.4338 10.9H67.0978L71.2058 20H69.4378L68.5278 17.894ZM67.9688 16.568L66.2528 12.59L64.5498 16.568H67.9688ZM80.9691 10.9V20H79.5781L74.5601 13.838V20H72.8831V10.9H74.2741L79.2921 17.062V10.9H80.9691ZM90.9995 18.57V20H83.2385V18.869L88.5945 12.33H83.3295V10.9H90.8305V12.031L85.4745 18.57H90.9995ZM96.9936 16.789V20H95.3036V16.815L91.7286 10.9H93.5356L96.2006 15.333L98.8916 10.9H100.556L96.9936 16.789ZM110.507 20.13C109.588 20.13 108.756 19.9307 108.011 19.532C107.274 19.1247 106.694 18.5657 106.269 17.855C105.853 17.1443 105.645 16.3427 105.645 15.45C105.645 14.5573 105.857 13.7557 106.282 13.045C106.707 12.3343 107.287 11.7797 108.024 11.381C108.769 10.9737 109.601 10.77 110.52 10.77C111.265 10.77 111.946 10.9 112.561 11.16C113.176 11.42 113.696 11.797 114.121 12.291L113.029 13.318C112.37 12.6073 111.56 12.252 110.598 12.252C109.974 12.252 109.415 12.3907 108.921 12.668C108.427 12.9367 108.041 13.3137 107.764 13.799C107.487 14.2843 107.348 14.8347 107.348 15.45C107.348 16.0653 107.487 16.6157 107.764 17.101C108.041 17.5863 108.427 17.9677 108.921 18.245C109.415 18.5137 109.974 18.648 110.598 18.648C111.56 18.648 112.37 18.2883 113.029 17.569L114.121 18.609C113.696 19.103 113.172 19.48 112.548 19.74C111.933 20 111.252 20.13 110.507 20.13ZM121.972 17.894H117.422L116.525 20H114.783L118.878 10.9H120.542L124.65 20H122.882L121.972 17.894ZM121.413 16.568L119.697 12.59L117.994 16.568H121.413ZM132.281 20L130.422 17.335C130.344 17.3437 130.227 17.348 130.071 17.348H128.017V20H126.327V10.9H130.071C130.86 10.9 131.545 11.03 132.125 11.29C132.715 11.55 133.165 11.9227 133.477 12.408C133.789 12.8933 133.945 13.4697 133.945 14.137C133.945 14.8217 133.776 15.411 133.438 15.905C133.109 16.399 132.632 16.7673 132.008 17.01L134.101 20H132.281ZM132.242 14.137C132.242 13.5563 132.052 13.11 131.67 12.798C131.289 12.486 130.73 12.33 129.993 12.33H128.017V15.957H129.993C130.73 15.957 131.289 15.801 131.67 15.489C132.052 15.1683 132.242 14.7177 132.242 14.137ZM139.177 20.13C138.475 20.13 137.795 20.0303 137.136 19.831C136.486 19.6317 135.97 19.3673 135.589 19.038L136.174 17.725C136.547 18.0197 137.002 18.2623 137.539 18.453C138.085 18.635 138.631 18.726 139.177 18.726C139.853 18.726 140.356 18.6177 140.685 18.401C141.023 18.1843 141.192 17.8983 141.192 17.543C141.192 17.283 141.097 17.0707 140.906 16.906C140.724 16.7327 140.49 16.5983 140.204 16.503C139.918 16.4077 139.528 16.2993 139.034 16.178C138.341 16.0133 137.777 15.8487 137.344 15.684C136.919 15.5193 136.551 15.2637 136.239 14.917C135.936 14.5617 135.784 14.085 135.784 13.487C135.784 12.9843 135.918 12.5293 136.187 12.122C136.464 11.706 136.876 11.3767 137.422 11.134C137.977 10.8913 138.653 10.77 139.45 10.77C140.005 10.77 140.551 10.8393 141.088 10.978C141.625 11.1167 142.089 11.316 142.479 11.576L141.946 12.889C141.547 12.655 141.131 12.4773 140.698 12.356C140.265 12.2347 139.844 12.174 139.437 12.174C138.77 12.174 138.271 12.2867 137.942 12.512C137.621 12.7373 137.461 13.0363 137.461 13.409C137.461 13.669 137.552 13.8813 137.734 14.046C137.925 14.2107 138.163 14.3407 138.449 14.436C138.735 14.5313 139.125 14.6397 139.619 14.761C140.295 14.917 140.85 15.0817 141.283 15.255C141.716 15.4197 142.085 15.6753 142.388 16.022C142.7 16.3687 142.856 16.8367 142.856 17.426C142.856 17.9287 142.717 18.3837 142.44 18.791C142.171 19.1983 141.76 19.5233 141.205 19.766C140.65 20.0087 139.974 20.13 139.177 20.13Z" fill="#64696B"/>
<path d="M59.058 28.542H55.908L55.287 30H54.081L56.916 23.7H58.068L60.912 30H59.688L59.058 28.542ZM58.671 27.624L57.483 24.87L56.304 27.624H58.671ZM65.5951 27.498C66.1891 27.678 66.4861 28.062 66.4861 28.65C66.4861 29.082 66.3241 29.415 66.0001 29.649C65.6761 29.883 65.1961 30 64.5601 30H62.1121V25.194H64.4611C65.0491 25.194 65.5081 25.302 65.8381 25.518C66.1681 25.734 66.3331 26.04 66.3331 26.436C66.3331 26.682 66.2671 26.895 66.1351 27.075C66.0091 27.255 65.8291 27.396 65.5951 27.498ZM63.1831 27.201H64.3621C64.9441 27.201 65.2351 27 65.2351 26.598C65.2351 26.208 64.9441 26.013 64.3621 26.013H63.1831V27.201ZM64.4701 29.181C65.0881 29.181 65.3971 28.98 65.3971 28.578C65.3971 28.368 65.3251 28.212 65.1811 28.11C65.0371 28.002 64.8121 27.948 64.5061 27.948H63.1831V29.181H64.4701ZM71.8514 26.148H70.1684V30H69.0434V26.148H67.3514V25.194H71.8514V26.148ZM74.9585 30.063C74.4725 30.063 74.0345 29.958 73.6445 29.748C73.2545 29.538 72.9485 29.247 72.7265 28.875C72.5105 28.497 72.4025 28.071 72.4025 27.597C72.4025 27.123 72.5105 26.7 72.7265 26.328C72.9485 25.956 73.2545 25.665 73.6445 25.455C74.0345 25.245 74.4725 25.14 74.9585 25.14C75.4505 25.14 75.8915 25.245 76.2815 25.455C76.6715 25.665 76.9745 25.956 77.1905 26.328C77.4125 26.7 77.5235 27.123 77.5235 27.597C77.5235 28.071 77.4125 28.497 77.1905 28.875C76.9745 29.247 76.6715 29.538 76.2815 29.748C75.8915 29.958 75.4505 30.063 74.9585 30.063ZM74.9585 29.1C75.3725 29.1 75.7145 28.962 75.9845 28.686C76.2545 28.41 76.3895 28.047 76.3895 27.597C76.3895 27.147 76.2545 26.784 75.9845 26.508C75.7145 26.232 75.3725 26.094 74.9585 26.094C74.5445 26.094 74.2025 26.232 73.9325 26.508C73.6685 26.784 73.5365 27.147 73.5365 27.597C73.5365 28.047 73.6685 28.41 73.9325 28.686C74.2025 28.962 74.5445 29.1 74.9585 29.1ZM81.1818 30.063C80.6838 30.063 80.2368 29.958 79.8408 29.748C79.4448 29.538 79.1358 29.247 78.9138 28.875C78.6918 28.497 78.5808 28.071 78.5808 27.597C78.5808 27.123 78.6918 26.7 78.9138 26.328C79.1358 25.956 79.4418 25.665 79.8318 25.455C80.2278 25.245 80.6778 25.14 81.1818 25.14C81.6558 25.14 82.0698 25.236 82.4238 25.428C82.7838 25.62 83.0538 25.896 83.2338 26.256L82.3698 26.76C82.2318 26.538 82.0578 26.373 81.8478 26.265C81.6438 26.151 81.4188 26.094 81.1728 26.094C80.7528 26.094 80.4048 26.232 80.1288 26.508C79.8528 26.778 79.7148 27.141 79.7148 27.597C79.7148 28.053 79.8498 28.419 80.1198 28.695C80.3958 28.965 80.7468 29.1 81.1728 29.1C81.4188 29.1 81.6438 29.046 81.8478 28.938C82.0578 28.824 82.2318 28.656 82.3698 28.434L83.2338 28.938C83.0478 29.298 82.7748 29.577 82.4148 29.775C82.0608 29.967 81.6498 30.063 81.1818 30.063ZM89.014 27.624C89.014 27.702 89.008 27.813 88.996 27.957H85.225C85.291 28.311 85.462 28.593 85.738 28.803C86.02 29.007 86.368 29.109 86.782 29.109C87.31 29.109 87.745 28.935 88.087 28.587L88.69 29.28C88.474 29.538 88.201 29.733 87.871 29.865C87.541 29.997 87.169 30.063 86.755 30.063C86.227 30.063 85.762 29.958 85.36 29.748C84.958 29.538 84.646 29.247 84.424 28.875C84.208 28.497 84.1 28.071 84.1 27.597C84.1 27.129 84.205 26.709 84.415 26.337C84.631 25.959 84.928 25.665 85.306 25.455C85.684 25.245 86.11 25.14 86.584 25.14C87.052 25.14 87.469 25.245 87.835 25.455C88.207 25.659 88.495 25.95 88.699 26.328C88.909 26.7 89.014 27.132 89.014 27.624ZM86.584 26.04C86.224 26.04 85.918 26.148 85.666 26.364C85.42 26.574 85.27 26.856 85.216 27.21H87.943C87.895 26.862 87.748 26.58 87.502 26.364C87.256 26.148 86.95 26.04 86.584 26.04ZM93.2685 25.14C93.7365 25.14 94.1535 25.242 94.5195 25.446C94.8915 25.65 95.1825 25.938 95.3925 26.31C95.6025 26.682 95.7075 27.111 95.7075 27.597C95.7075 28.083 95.6025 28.515 95.3925 28.893C95.1825 29.265 94.8915 29.553 94.5195 29.757C94.1535 29.961 93.7365 30.063 93.2685 30.063C92.6205 30.063 92.1075 29.847 91.7295 29.415V31.746H90.6045V25.194H91.6755V25.824C91.8615 25.596 92.0895 25.425 92.3595 25.311C92.6355 25.197 92.9385 25.14 93.2685 25.14ZM93.1425 29.1C93.5565 29.1 93.8955 28.962 94.1595 28.686C94.4295 28.41 94.5645 28.047 94.5645 27.597C94.5645 27.147 94.4295 26.784 94.1595 26.508C93.8955 26.232 93.5565 26.094 93.1425 26.094C92.8725 26.094 92.6295 26.157 92.4135 26.283C92.1975 26.403 92.0265 26.577 91.9005 26.805C91.7745 27.033 91.7115 27.297 91.7115 27.597C91.7115 27.897 91.7745 28.161 91.9005 28.389C92.0265 28.617 92.1975 28.794 92.4135 28.92C92.6295 29.04 92.8725 29.1 93.1425 29.1ZM100.67 27.498C101.264 27.678 101.561 28.062 101.561 28.65C101.561 29.082 101.399 29.415 101.075 29.649C100.751 29.883 100.271 30 99.6351 30H97.1871V25.194H99.5361C100.124 25.194 100.583 25.302 100.913 25.518C101.243 25.734 101.408 26.04 101.408 26.436C101.408 26.682 101.342 26.895 101.21 27.075C101.084 27.255 100.904 27.396 100.67 27.498ZM98.2581 27.201H99.4371C100.019 27.201 100.31 27 100.31 26.598C100.31 26.208 100.019 26.013 99.4371 26.013H98.2581V27.201ZM99.5451 29.181C100.163 29.181 100.472 28.98 100.472 28.578C100.472 28.368 100.4 28.212 100.256 28.11C100.112 28.002 99.8871 27.948 99.5811 27.948H98.2581V29.181H99.5451ZM103.119 25.194H104.244V28.362L106.899 25.194H107.925V30H106.8V26.832L104.154 30H103.119V25.194ZM111.986 30.063C111.488 30.063 111.041 29.958 110.645 29.748C110.249 29.538 109.94 29.247 109.718 28.875C109.496 28.497 109.385 28.071 109.385 27.597C109.385 27.123 109.496 26.7 109.718 26.328C109.94 25.956 110.246 25.665 110.636 25.455C111.032 25.245 111.482 25.14 111.986 25.14C112.46 25.14 112.874 25.236 113.228 25.428C113.588 25.62 113.858 25.896 114.038 26.256L113.174 26.76C113.036 26.538 112.862 26.373 112.652 26.265C112.448 26.151 112.223 26.094 111.977 26.094C111.557 26.094 111.209 26.232 110.933 26.508C110.657 26.778 110.519 27.141 110.519 27.597C110.519 28.053 110.654 28.419 110.924 28.695C111.2 28.965 111.551 29.1 111.977 29.1C112.223 29.1 112.448 29.046 112.652 28.938C112.862 28.824 113.036 28.656 113.174 28.434L114.038 28.938C113.852 29.298 113.579 29.577 113.219 29.775C112.865 29.967 112.454 30.063 111.986 30.063Z" fill="#64696B"/>
<path d="M122.742 29.01V30H117.369V29.217L121.077 24.69H117.432V23.7H122.625V24.483L118.917 29.01H122.742ZM128.496 27.624C128.496 27.702 128.49 27.813 128.478 27.957H124.707C124.773 28.311 124.944 28.593 125.22 28.803C125.502 29.007 125.85 29.109 126.264 29.109C126.792 29.109 127.227 28.935 127.569 28.587L128.172 29.28C127.956 29.538 127.683 29.733 127.353 29.865C127.023 29.997 126.651 30.063 126.237 30.063C125.709 30.063 125.244 29.958 124.842 29.748C124.44 29.538 124.128 29.247 123.906 28.875C123.69 28.497 123.582 28.071 123.582 27.597C123.582 27.129 123.687 26.709 123.897 26.337C124.113 25.959 124.41 25.665 124.788 25.455C125.166 25.245 125.592 25.14 126.066 25.14C126.534 25.14 126.951 25.245 127.317 25.455C127.689 25.659 127.977 25.95 128.181 26.328C128.391 26.7 128.496 27.132 128.496 27.624ZM126.066 26.04C125.706 26.04 125.4 26.148 125.148 26.364C124.902 26.574 124.752 26.856 124.698 27.21H127.425C127.377 26.862 127.23 26.58 126.984 26.364C126.738 26.148 126.432 26.04 126.066 26.04ZM134.455 27.624C134.455 27.702 134.449 27.813 134.437 27.957H130.666C130.732 28.311 130.903 28.593 131.179 28.803C131.461 29.007 131.809 29.109 132.223 29.109C132.751 29.109 133.186 28.935 133.528 28.587L134.131 29.28C133.915 29.538 133.642 29.733 133.312 29.865C132.982 29.997 132.61 30.063 132.196 30.063C131.668 30.063 131.203 29.958 130.801 29.748C130.399 29.538 130.087 29.247 129.865 28.875C129.649 28.497 129.541 28.071 129.541 27.597C129.541 27.129 129.646 26.709 129.856 26.337C130.072 25.959 130.369 25.665 130.747 25.455C131.125 25.245 131.551 25.14 132.025 25.14C132.493 25.14 132.91 25.245 133.276 25.455C133.648 25.659 133.936 25.95 134.14 26.328C134.35 26.7 134.455 27.132 134.455 27.624ZM132.025 26.04C131.665 26.04 131.359 26.148 131.107 26.364C130.861 26.574 130.711 26.856 130.657 27.21H133.384C133.336 26.862 133.189 26.58 132.943 26.364C132.697 26.148 132.391 26.04 132.025 26.04ZM137.857 27.939L137.02 28.731V30H135.895V23.322H137.02V27.354L139.351 25.194H140.701L138.694 27.21L140.89 30H139.522L137.857 27.939ZM143.004 25.896C143.328 25.392 143.898 25.14 144.714 25.14V26.211C144.618 26.193 144.531 26.184 144.453 26.184C144.015 26.184 143.673 26.313 143.427 26.571C143.181 26.823 143.058 27.189 143.058 27.669V30H141.933V25.194H143.004V25.896Z" fill="#64696B"/>
</svg>
