<svg width="32" height="32" viewBox="0 0 32 32" fill="none">
<mask id="path-1-inside-1_139_1639" fill="white">
<path d="M6 12C6 11.4477 6.44772 11 7 11H25C25.5523 11 26 11.4477 26 12V27C26 27.5523 25.5523 28 25 28H7C6.44772 28 6 27.5523 6 27V12Z"/>
</mask>
<path d="M6 11H26H6ZM27.5 27C27.5 28.3807 26.3807 29.5 25 29.5H7C5.61929 29.5 4.5 28.3807 4.5 27L7.5 26.5H24.5L27.5 27ZM7 29.5C5.61929 29.5 4.5 28.3807 4.5 27V13.5C4.5 12.1193 5.61929 11 7 11H7.5C7.5 11 7.5 11.4477 7.5 12V26.5L7 29.5ZM25 11C26.3807 11 27.5 12.1193 27.5 13.5V27C27.5 28.3807 26.3807 29.5 25 29.5L24.5 26.5V12C24.5 11.4477 24.5 11 24.5 11H25Z" fill="currentColor" mask="url(#path-1-inside-1_139_1639)"/>
<path d="M5.3877 6.75H26.6123C26.7616 6.75 26.8731 6.87807 26.8623 7.01855L26.8496 7.0791L25.5166 11.0791C25.4826 11.1812 25.3869 11.25 25.2793 11.25H6.7207C6.63984 11.25 6.56577 11.2111 6.51953 11.1484L6.4834 11.0791L5.15039 7.0791C5.10317 6.93743 5.1895 6.792 5.32617 6.75781L5.3877 6.75Z" stroke="currentColor" stroke-width="1.5"/>
<path fill-rule="evenodd" clip-rule="evenodd" d="M16.2815 15.6H15.7185L15.396 16.889L15.0725 16.989C14.884 17.0471 14.7014 17.1228 14.527 17.215L14.2275 17.3735L13.0875 16.6895L12.6895 17.088L13.3735 18.228L13.215 18.527C13.1226 18.7013 13.0467 18.884 12.9885 19.0725L12.889 19.396L11.6 19.7185V20.2815L12.889 20.604L12.989 20.9275C13.0467 21.1168 13.122 21.2987 13.215 21.473L13.3735 21.7725L12.6895 22.9125L13.088 23.3105L14.228 22.6265L14.527 22.785C14.7013 22.8777 14.8832 22.9532 15.0725 23.0115L15.396 23.111L15.7185 24.4H16.2815L16.604 23.111L16.9275 23.011C17.116 22.9529 17.2986 22.8772 17.473 22.785L17.7725 22.6265L18.9125 23.3105L19.3105 22.912L18.6265 21.772L18.785 21.473C18.8777 21.2987 18.9532 21.1168 19.0115 20.9275L19.111 20.604L20.4 20.2815V19.7185L19.111 19.396L19.011 19.0725C18.9529 18.884 18.8772 18.7014 18.785 18.527L18.6265 18.2275L19.3105 17.0875L18.912 16.6895L17.772 17.3735L17.473 17.215C17.2987 17.1226 17.116 17.0467 16.9275 16.9885L16.604 16.889L16.2815 15.6ZM17.754 16.685L18.6705 16.135C18.7661 16.0777 18.878 16.0539 18.9886 16.0675C19.0993 16.0811 19.2022 16.1313 19.281 16.21L19.79 16.719C19.8687 16.7979 19.9189 16.9007 19.9325 17.0114C19.9461 17.122 19.9223 17.2339 19.865 17.3295L19.315 18.246C19.425 18.4527 19.515 18.6693 19.585 18.896L20.6215 19.1555C20.7296 19.1826 20.8256 19.245 20.8942 19.3329C20.9627 19.4208 21 19.529 21 19.6405V20.3595C21 20.471 20.9627 20.5792 20.8942 20.6671C20.8256 20.755 20.7296 20.8174 20.6215 20.8445L19.585 21.104C19.515 21.3307 19.425 21.5473 19.315 21.754L19.865 22.6705C19.9223 22.7661 19.9461 22.878 19.9325 22.9886C19.9189 23.0993 19.8687 23.2022 19.79 23.281L19.281 23.79C19.2022 23.8687 19.0993 23.9189 18.9886 23.9325C18.878 23.9461 18.7661 23.9223 18.6705 23.865L17.754 23.315C17.5473 23.425 17.3307 23.515 17.104 23.585L16.8445 24.6215C16.8174 24.7296 16.755 24.8256 16.6671 24.8942C16.5792 24.9627 16.471 25 16.3595 25H15.6405C15.529 25 15.4208 24.9627 15.3329 24.8942C15.245 24.8256 15.1826 24.7296 15.1555 24.6215L14.896 23.585C14.6713 23.5156 14.4537 23.4252 14.246 23.315L13.3295 23.865C13.2339 23.9223 13.122 23.9461 13.0114 23.9325C12.9007 23.9189 12.7979 23.8687 12.719 23.79L12.21 23.281C12.1313 23.2022 12.0811 23.0993 12.0675 22.9886C12.0539 22.878 12.0777 22.7661 12.135 22.6705L12.685 21.754C12.5748 21.5463 12.4844 21.3287 12.415 21.104L11.3785 20.8445C11.2705 20.8174 11.1745 20.7551 11.106 20.6673C11.0374 20.5795 11.0001 20.4714 11 20.36V19.641C11 19.5295 11.0373 19.4213 11.1058 19.3334C11.1744 19.2455 11.2704 19.1831 11.3785 19.156L12.415 18.8965C12.485 18.6698 12.575 18.4532 12.685 18.2465L12.135 17.33C12.0777 17.2344 12.0539 17.1225 12.0675 17.0119C12.0811 16.9012 12.1313 16.7984 12.21 16.7195L12.719 16.21C12.7979 16.1313 12.9007 16.0811 13.0114 16.0675C13.122 16.0539 13.2339 16.0777 13.3295 16.135L14.246 16.685C14.4527 16.575 14.6693 16.485 14.896 16.415L15.1555 15.3785C15.1826 15.2705 15.2449 15.1745 15.3327 15.106C15.4205 15.0374 15.5286 15.0001 15.64 15H16.359C16.4705 15 16.5787 15.0373 16.6666 15.1058C16.7545 15.1744 16.8169 15.2704 16.844 15.3785L17.1035 16.415C17.3302 16.485 17.5468 16.575 17.7535 16.685H17.754ZM16 21.4C16.3713 21.4 16.7274 21.2525 16.9899 20.9899C17.2525 20.7274 17.4 20.3713 17.4 20C17.4 19.6287 17.2525 19.2726 16.9899 19.0101C16.7274 18.7475 16.3713 18.6 16 18.6C15.6287 18.6 15.2726 18.7475 15.0101 19.0101C14.7475 19.2726 14.6 19.6287 14.6 20C14.6 20.3713 14.7475 20.7274 15.0101 20.9899C15.2726 21.2525 15.6287 21.4 16 21.4ZM16 22C15.4696 22 14.9609 21.7893 14.5858 21.4142C14.2107 21.0391 14 20.5304 14 20C14 19.4696 14.2107 18.9609 14.5858 18.5858C14.9609 18.2107 15.4696 18 16 18C16.5304 18 17.0391 18.2107 17.4142 18.5858C17.7893 18.9609 18 19.4696 18 20C18 20.5304 17.7893 21.0391 17.4142 21.4142C17.0391 21.7893 16.5304 22 16 22Z" fill="currentColor"/>
</svg>
