<svg width="32" height="30" viewBox="0 0 32 30" fill="none">
<path d="M16 0.75C23.8919 0.75 30.289 7.14719 30.2891 15.0391C30.2891 16.9065 29.9911 18.1905 29.5361 19.0703C29.0911 19.9309 28.4778 20.4417 27.7529 20.7471C27.0072 21.0611 26.1117 21.1699 25.1064 21.1553C24.3524 21.1443 23.5695 21.0656 22.7773 20.9688L21.9824 20.8672C20.789 20.713 19.5531 20.5505 18.5049 20.6182C17.5186 20.6819 16.5179 20.9613 15.8818 21.8125L15.7598 21.9902C15.3036 22.7133 15.3513 23.4989 15.5889 24.1543C15.793 24.7175 16.1499 25.2324 16.5332 25.6494L16.6982 25.8213C16.8213 25.9443 16.9251 26.0854 17.0068 26.2383L17.0811 26.3945C17.1698 26.6087 17.2158 26.8385 17.2158 27.0703C17.2158 27.3022 17.1698 27.5319 17.0811 27.7461C17.0146 27.9066 16.9252 28.0566 16.8154 28.1904L16.6982 28.3193C16.08 28.9375 15.2913 29.2854 14.5088 29.2471L14.3525 29.2344H14.3516C7.23627 28.4171 1.71094 22.3731 1.71094 15.0391C1.71102 7.14724 8.10818 0.750081 16 0.75ZM7.72852 11.2812C7.03093 11.2813 6.35813 11.5236 5.82324 11.9619L5.60352 12.1621C5.03984 12.7258 4.72269 13.49 4.72266 14.2871C4.72266 14.9847 4.96505 15.6575 5.40332 16.1924L5.60352 16.4131C6.16718 16.9765 6.93151 17.293 7.72852 17.293C8.52573 17.293 9.29078 16.9768 9.85449 16.4131C10.4182 15.8494 10.7344 15.0843 10.7344 14.2871C10.7343 13.4901 10.4179 12.7258 9.85449 12.1621C9.29078 11.5984 8.52572 11.2812 7.72852 11.2812ZM24.2715 11.2812C23.5742 11.2813 22.902 11.5239 22.3672 11.9619L22.1465 12.1621C21.5828 12.7258 21.2657 13.49 21.2656 14.2871C21.2656 14.9846 21.5081 15.6575 21.9463 16.1924L22.1465 16.4131C22.7101 16.9766 23.4745 17.2929 24.2715 17.293C24.9691 17.293 25.6419 17.0506 26.1768 16.6123L26.3975 16.4131C26.9612 15.8494 27.2773 15.0843 27.2773 14.2871C27.2773 13.5895 27.0351 12.9167 26.5967 12.3818L26.3975 12.1621C25.8337 11.5984 25.0687 11.2812 24.2715 11.2812ZM12.3682 4.51367C11.6706 4.51368 10.9978 4.75602 10.4629 5.19434L10.2432 5.39453C9.67947 5.95823 9.36232 6.72235 9.3623 7.51953C9.3623 8.31674 9.67945 9.0818 10.2432 9.64551C10.8068 10.2089 11.5712 10.5254 12.3682 10.5254C13.1654 10.5254 13.9304 10.2092 14.4941 9.64551C15.0578 9.0818 15.374 8.31673 15.374 7.51953C15.374 6.82191 15.1317 6.14915 14.6934 5.61426L14.4941 5.39453C13.9304 4.83082 13.1654 4.51367 12.3682 4.51367ZM19.7598 4.51367C19.0622 4.51372 18.3894 4.756 17.8545 5.19434L17.6348 5.39453C17.0711 5.95822 16.7539 6.72238 16.7539 7.51953C16.7539 8.21709 16.9963 8.88992 17.4346 9.4248L17.6348 9.64551C18.1984 10.209 18.9628 10.5253 19.7598 10.5254C20.0557 10.5254 20.3497 10.482 20.6318 10.3965L20.9102 10.2969C21.1837 10.1836 21.4389 10.0309 21.667 9.84375L21.8857 9.64551C22.0952 9.43605 22.272 9.19683 22.4111 8.93652L22.5371 8.66992C22.6882 8.30524 22.7656 7.91426 22.7656 7.51953C22.7656 7.12482 22.6882 6.73381 22.5371 6.36914C22.3861 6.00465 22.1647 5.67355 21.8857 5.39453C21.6763 5.18513 21.437 5.00824 21.1768 4.86914L20.9102 4.74219C20.5455 4.59118 20.1544 4.51367 19.7598 4.51367Z" stroke="currentColor" stroke-width="1.5"/>
</svg>
